<svg width="200" height="200" viewBox="0 0 200 200" fill="none" xmlns="http://www.w3.org/2000/svg">
<mask id="path-1-inside-1_14_31" fill="white">
<path d="M181.667 126.397C189.115 128.804 197.212 124.719 198.544 117.006C201.64 99.0644 199.793 80.5208 193.065 63.4101C184.6 41.8789 168.931 23.9491 148.728 12.6755C128.525 1.40201 105.038 -2.51765 82.2694 1.58443C59.5004 5.6865 38.8582 17.5565 23.8599 35.1719C8.86155 52.7873 0.435135 75.0583 0.0163818 98.19C-0.402371 121.322 7.21245 143.883 21.5634 162.03C35.9143 180.177 56.1134 192.786 78.7189 197.709C96.6834 201.622 115.284 200.488 132.502 194.571C139.905 192.027 142.646 183.381 139.082 176.412C135.518 169.444 126.989 166.837 119.455 168.962C108.217 172.133 96.3005 172.528 84.7513 170.012C68.5535 166.485 54.0801 157.45 43.7971 144.447C33.5141 131.444 28.0578 115.278 28.3579 98.7031C28.6579 82.1283 34.6958 66.1703 45.4427 53.5482C56.1895 40.9261 70.9805 32.4208 87.2953 29.4815C103.61 26.5422 120.439 29.3507 134.916 37.4287C149.392 45.5066 160.619 58.354 166.685 73.7819C171.01 84.7822 172.52 96.6091 171.182 108.209C170.285 115.985 174.219 123.989 181.667 126.397Z"/>
</mask>
<path d="M181.667 126.397C189.115 128.804 197.212 124.719 198.544 117.006C201.64 99.0644 199.793 80.5208 193.065 63.4101C184.6 41.8789 168.931 23.9491 148.728 12.6755C128.525 1.40201 105.038 -2.51765 82.2694 1.58443C59.5004 5.6865 38.8582 17.5565 23.8599 35.1719C8.86155 52.7873 0.435135 75.0583 0.0163818 98.19C-0.402371 121.322 7.21245 143.883 21.5634 162.03C35.9143 180.177 56.1134 192.786 78.7189 197.709C96.6834 201.622 115.284 200.488 132.502 194.571C139.905 192.027 142.646 183.381 139.082 176.412C135.518 169.444 126.989 166.837 119.455 168.962C108.217 172.133 96.3005 172.528 84.7513 170.012C68.5535 166.485 54.0801 157.45 43.7971 144.447C33.5141 131.444 28.0578 115.278 28.3579 98.7031C28.6579 82.1283 34.6958 66.1703 45.4427 53.5482C56.1895 40.9261 70.9805 32.4208 87.2953 29.4815C103.61 26.5422 120.439 29.3507 134.916 37.4287C149.392 45.5066 160.619 58.354 166.685 73.7819C171.01 84.7822 172.52 96.6091 171.182 108.209C170.285 115.985 174.219 123.989 181.667 126.397Z" fill="black" stroke="black" stroke-width="8" mask="url(#path-1-inside-1_14_31)"/>
</svg>
